Coordinates
version=1
nRows=19
nColumns=34
inDegrees=no

Units are S.I. units (second, meters, Newtons, ...)
If the header above contains a line with 'inDegrees', this indicates whether rotational values are in degrees (yes) or radians (no).

endheader
time	pelvis_tilt	pelvis_list	pelvis_rotation	pelvis_tx	pelvis_ty	pelvis_tz	hip_flexion_r	hip_adduction_r	hip_rotation_r	knee_angle_r	ankle_angle_r	subtalar_angle_r	mtp_angle_r	hip_flexion_l	hip_adduction_l	hip_rotation_l	knee_angle_l	ankle_angle_l	subtalar_angle_l	mtp_angle_l	lumbar_extension	lumbar_bending	lumbar_rotation	arm_flex_r	arm_add_r	arm_rot_r	elbow_flex_r	pro_sup_r	arm_flex_l	arm_add_l	arm_rot_l	elbow_flex_l	pro_sup_l
3.14	-0.439813	-0.0485268	0.0114419	-0.360355	0.624344	-0.518127	1.64271	0.05703	-0.0216974	1.57998	0.456555	-0.332229	-0.141513	1.69639	-0.502745	0.169611	1.43638	0.372662	0.259616	-0.141514	-0.692906	0.167969	0.0669509	1.47417	-0.346576	0.14827	2.07456	1.2544	1.37922	-0.145298	0.0453203	1.77063	1.60239
3.15	-0.438665	-0.0506112	0.00912627	-0.360695	0.622466	-0.518351	1.64611	0.0583611	-0.0244506	1.58522	0.45814	-0.33116	-0.141513	1.70329	-0.506339	0.174479	1.44332	0.375099	0.263132	-0.141514	-0.699711	0.168449	0.0682955	1.47522	-0.345394	0.145111	2.07755	1.258	1.38354	-0.147715	0.0437983	1.77499	1.59761
3.16	-0.437439	-0.0528851	0.00687105	-0.360977	0.620715	-0.518585	1.64904	0.0596547	-0.0273834	1.59008	0.45971	-0.330136	-0.141513	1.70991	-0.510094	0.17925	1.44991	0.377506	0.266942	-0.141514	-0.706102	0.169069	0.0697113	1.47568	-0.344578	0.141712	2.0806	1.26151	1.38732	-0.149944	0.0422453	1.77915	1.59436
3.17	-0.436249	-0.0551672	0.00474139	-0.361209	0.619075	-0.518842	1.6517	0.0607529	-0.0303047	1.59466	0.461277	-0.329019	-0.141513	1.71627	-0.513845	0.183726	1.45618	0.379854	0.270863	-0.141514	-0.711896	0.16973	0.0710614	1.47553	-0.344163	0.138053	2.08372	1.26466	1.3906	-0.151886	0.0406405	1.78302	1.5925
3.18	-0.435191	-0.0573065	0.00279662	-0.361398	0.617535	-0.519134	1.65425	0.0615321	-0.0330434	1.59903	0.462848	-0.327712	-0.141513	1.72237	-0.517438	0.187745	1.46217	0.382134	0.274722	-0.141514	-0.716944	0.170359	0.0722199	1.47475	-0.344157	0.134152	2.08686	1.26721	1.39337	-0.153463	0.0389325	1.78659	1.5917
3.19	-0.43431	-0.0592208	0.00107898	-0.361549	0.616091	-0.519465	1.65676	0.0619404	-0.0354874	1.6032	0.46442	-0.326198	-0.141513	1.72817	-0.520763	0.19122	1.46787	0.384354	0.278394	-0.141514	-0.721175	0.170927	0.0731052	1.47336	-0.344529	0.130059	2.08995	1.26903	1.39564	-0.154638	0.0370523	1.78991	1.59162
3.2	-0.433599	-0.0608991	-0.000387183	-0.361662	0.614745	-0.519835	1.65922	0.0620002	-0.0375883	1.60718	0.465974	-0.324546	-0.141513	1.73364	-0.523758	0.19415	1.47327	0.386527	0.281803	-0.141514	-0.724598	0.171445	0.0736841	1.4714	-0.345218	0.125848	2.09292	1.27005	1.39741	-0.155416	0.034936	1.79306	1.59195
3.21	-0.433008	-0.0623812	-0.00159179	-0.361737	0.613504	-0.520239	1.66155	0.0617886	-0.0393471	1.61094	0.467479	-0.322891	-0.141513	1.73871	-0.526398	0.196595	1.47834	0.388656	0.284917	-0.141514	-0.727285	0.171954	0.0739624	1.46892	-0.346137	0.121595	2.09571	1.27033	1.39869	-0.155831	0.0325483	1.79614	1.59246
3.22	-0.432467	-0.0637346	-0.00253654	-0.361774	0.61238	-0.52067	1.66364	0.0614123	-0.0407958	1.61443	0.468898	-0.32139	-0.141513	1.74332	-0.528682	0.198654	1.48305	0.390731	0.287727	-0.141514	-0.729343	0.172497	0.0739754	1.466	-0.347202	0.117368	2.09827	1.26996	1.39951	-0.155937	0.0298978	1.79922	1.59296
3.23	-0.431895	-0.0650339	-0.00323598	-0.36177	0.611385	-0.52112	1.66538	0.0609841	-0.0419855	1.6176	0.470199	-0.32019	-0.141513	1.74742	-0.530628	0.200437	1.48736	0.392728	0.290237	-0.141514	-0.730899	0.173114	0.0737808	1.46273	-0.348343	0.113223	2.1006	1.26912	1.3999	-0.155789	0.0270343	1.80237	1.59333
3.24	-0.431216	-0.0663447	-0.0037209	-0.361726	0.61053	-0.521578	1.66664	0.0606065	-0.0429762	1.62039	0.471356	-0.319393	-0.141513	1.75094	-0.53227	0.202044	1.49123	0.394616	0.292452	-0.141514	-0.73208	0.173824	0.0734541	1.45918	-0.349521	0.109207	2.10276	1.26801	1.39989	-0.155431	0.0240287	1.80564	1.59347
3.25	-0.430373	-0.0677125	-0.00404095	-0.361641	0.609827	-0.522039	1.66733	0.0603622	-0.0438282	1.62275	0.472354	-0.319042	-0.141513	1.75385	-0.533665	0.20355	1.49464	0.396361	0.294383	-0.141514	-0.733001	0.174623	0.073082	1.45547	-0.350728	0.105367	2.10481	1.26684	1.39955	-0.154891	0.0209498	1.80904	1.59332
3.26	-0.429336	-0.0691575	-0.00426302	-0.361518	0.609288	-0.522493	1.66739	0.0603137	-0.0445951	1.62461	0.473184	-0.319119	-0.141513	1.75609	-0.534888	0.204991	1.49756	0.397942	0.296046	-0.141514	-0.733753	0.175482	0.0727544	1.45166	-0.351979	0.101757	2.10682	1.26586	1.3989	-0.154193	0.0178548	1.8126	1.5928
3.27	-0.428096	-0.0706789	-0.00446565	-0.361359	0.608918	-0.522934	1.66678	0.0605055	-0.0453205	1.62594	0.47384	-0.319561	-0.141513	1.75764	-0.536031	0.206373	1.49996	0.39935	0.297472	-0.141514	-0.734403	0.176356	0.0725569	1.44782	-0.353307	0.0984423	2.10887	1.26523	1.39798	-0.153361	0.0147958	1.81635	1.59176
3.28	-0.426669	-0.0722618	-0.00472984	-0.361166	0.608725	-0.523358	1.66551	0.0609629	-0.0460413	1.6267	0.474313	-0.320273	-0.141513	1.75849	-0.537192	0.207679	1.50181	0.400586	0.298699	-0.141514	-0.734987	0.177187	0.0725636	1.44401	-0.354748	0.0954877	2.11099	1.26507	1.3968	-0.152427	0.0118265	1.82033	1.59005
3.29	-0.425089	-0.0738853	-0.00512676	-0.360946	0.608708	-0.523758	1.66362	0.0616849	-0.0467918	1.62686	0.474595	-0.321139	-0.141513	1.75867	-0.538454	0.208882	1.50313	0.401662	0.299768	-0.141514	-0.735513	0.177921	0.0728282	1.44025	-0.356323	0.092944	2.11319	1.26544	1.39535	-0.151434	0.009003	1.82459	1.58756
3.3	-0.423416	-0.0755244	-0.00570192	-0.360703	0.608865	-0.524133	1.66117	0.0626309	-0.0476041	1.62643	0.474682	-0.322029	-0.141513	1.7582	-0.539857	0.209953	1.50389	0.402593	0.300703	-0.141514	-0.735946	0.178517	0.0733704	1.43653	-0.35803	0.0908329	2.11545	1.26633	1.39361	-0.150427	0.00637516	1.82917	1.58435
3.31	-0.421737	-0.0771455	-0.006457	-0.360443	0.60919	-0.524484	1.65828	0.0637052	-0.0484986	1.62542	0.474592	-0.322795	-0.141513	1.75715	-0.541374	0.210853	1.50412	0.403389	0.301494	-0.141514	-0.736209	0.178953	0.0741565	1.43282	-0.359839	0.0891486	2.11774	1.26766	1.39155	-0.14946	0.00397244	1.83413	1.58061
3.32	-0.420168	-0.0786961	-0.00733162	-0.360174	0.609671	-0.524817	1.65511	0.0647418	-0.0494673	1.62387	0.474374	-0.323279	-0.141513	1.7556	-0.542895	0.211518	1.5038	0.404051	0.302098	-0.141514	-0.736166	0.179236	0.0750778	1.42906	-0.3617	0.0878649	2.12005	1.2693	1.3891	-0.148587	0.00179377	1.83946	1.57676
